REM DIRINDEX 1\2,1\3,1\4,1\5\6,1\5\7,1\8
REM DIRNAME folder01,folder02,folder03,folder04,folder05,folder06,folder07,folder08
TITLE ""
FILE "109 Åy109ÅzUnit6 (1237 respondent_1248 welfare).mp3" MP3
  TRACK 01 AUDIO
    TITLE "0:"
    INDEX 01 00:00:00
  TRACK 02 AUDIO
    TITLE "2:cjc115_4234"
    INDEX 01 00:00:07
  TRACK 03 AUDIO
    TITLE "0:"
    INDEX 01 00:01:32
  TRACK 04 AUDIO
    TITLE "3:cjc115_4235"
    INDEX 01 00:01:40
  TRACK 05 AUDIO
    TITLE "0:"
    INDEX 01 00:02:65
  TRACK 06 AUDIO
    TITLE "4:cjc115_4236"
    INDEX 01 00:02:69
  TRACK 07 AUDIO
    TITLE "0:"
    INDEX 01 00:06:35
  TRACK 08 AUDIO
    TITLE "2:cjc115_4237"
    INDEX 01 00:07:43
  TRACK 09 AUDIO
    TITLE "0:"
    INDEX 01 00:08:58
  TRACK 10 AUDIO
    TITLE "3:cjc115_4238"
    INDEX 01 00:08:66
  TRACK 11 AUDIO
    TITLE "0:"
    INDEX 01 00:10:14
  TRACK 12 AUDIO
    TITLE "4:cjc115_4239"
    INDEX 01 00:10:27
  TRACK 13 AUDIO
    TITLE "0:"
    INDEX 01 00:14:21
  TRACK 14 AUDIO
    TITLE "2:cjc115_4240"
    INDEX 01 00:15:30
  TRACK 15 AUDIO
    TITLE "0:"
    INDEX 01 00:16:48
  TRACK 16 AUDIO
    TITLE "3:cjc115_4241"
    INDEX 01 00:16:51
  TRACK 17 AUDIO
    TITLE "0:"
    INDEX 01 00:17:59
  TRACK 18 AUDIO
    TITLE "4:cjc115_4242"
    INDEX 01 00:17:69
  TRACK 19 AUDIO
    TITLE "0:"
    INDEX 01 00:20:55
  TRACK 20 AUDIO
    TITLE "2:cjc115_4243"
    INDEX 01 00:21:62
  TRACK 21 AUDIO
    TITLE "0:"
    INDEX 01 00:23:06
  TRACK 22 AUDIO
    TITLE "3:cjc115_4244"
    INDEX 01 00:23:14
  TRACK 23 AUDIO
    TITLE "0:"
    INDEX 01 00:25:29
  TRACK 24 AUDIO
    TITLE "4:cjc115_4245"
    INDEX 01 00:25:33
  TRACK 25 AUDIO
    TITLE "0:"
    INDEX 01 00:29:23
  TRACK 26 AUDIO
    TITLE "2:cjc115_4246"
    INDEX 01 00:30:24
  TRACK 27 AUDIO
    TITLE "0:"
    INDEX 01 00:31:31
  TRACK 28 AUDIO
    TITLE "3:cjc115_4247"
    INDEX 01 00:31:39
  TRACK 29 AUDIO
    TITLE "0:"
    INDEX 01 00:34:34
  TRACK 30 AUDIO
    TITLE "4:cjc115_4248"
    INDEX 01 00:34:42
  TRACK 31 AUDIO
    TITLE "0:"
    INDEX 01 00:37:73
  TRACK 32 AUDIO
    TITLE "2:cjc115_4249"
    INDEX 01 00:39:02
  TRACK 33 AUDIO
    TITLE "0:"
    INDEX 01 00:40:17
  TRACK 34 AUDIO
    TITLE "3:cjc115_4250"
    INDEX 01 00:40:26
  TRACK 35 AUDIO
    TITLE "0:"
    INDEX 01 00:41:67
  TRACK 36 AUDIO
    TITLE "4:cjc115_4251"
    INDEX 01 00:42:00
  TRACK 37 AUDIO
    TITLE "0:"
    INDEX 01 00:45:16
  TRACK 38 AUDIO
    TITLE "2:cjc115_4252"
    INDEX 01 00:46:25
  TRACK 39 AUDIO
    TITLE "0:"
    INDEX 01 00:47:36
  TRACK 40 AUDIO
    TITLE "3:cjc115_4253"
    INDEX 01 00:47:42
  TRACK 41 AUDIO
    TITLE "0:"
    INDEX 01 00:50:48
  TRACK 42 AUDIO
    TITLE "4:cjc115_4254"
    INDEX 01 00:50:58
  TRACK 43 AUDIO
    TITLE "0:"
    INDEX 01 00:53:68
  TRACK 44 AUDIO
    TITLE "2:cjc115_4255"
    INDEX 01 00:54:72
  TRACK 45 AUDIO
    TITLE "0:"
    INDEX 01 00:56:18
  TRACK 46 AUDIO
    TITLE "3:cjc115_4256"
    INDEX 01 00:56:27
  TRACK 47 AUDIO
    TITLE "0:"
    INDEX 01 00:58:71
  TRACK 48 AUDIO
    TITLE "4:cjc115_4257"
    INDEX 01 00:59:04
  TRACK 49 AUDIO
    TITLE "0:"
    INDEX 01 01:02:44
  TRACK 50 AUDIO
    TITLE "2:cjc115_4258"
    INDEX 01 01:03:49
  TRACK 51 AUDIO
    TITLE "0:"
    INDEX 01 01:04:72
  TRACK 52 AUDIO
    TITLE "3:cjc115_4259"
    INDEX 01 01:05:05
  TRACK 53 AUDIO
    TITLE "0:"
    INDEX 01 01:06:36
  TRACK 54 AUDIO
    TITLE "4:cjc115_4260"
    INDEX 01 01:06:43
  TRACK 55 AUDIO
    TITLE "0:"
    INDEX 01 01:11:23
  TRACK 56 AUDIO
    TITLE "2:cjc115_4261"
    INDEX 01 01:12:28
  TRACK 57 AUDIO
    TITLE "0:"
    INDEX 01 01:13:51
  TRACK 58 AUDIO
    TITLE "3:cjc115_4262"
    INDEX 01 01:13:59
  TRACK 59 AUDIO
    TITLE "0:"
    INDEX 01 01:15:01
  TRACK 60 AUDIO
    TITLE "4:cjc115_4263"
    INDEX 01 01:15:15
  TRACK 61 AUDIO
    TITLE "0:"
    INDEX 01 01:18:70
  TRACK 62 AUDIO
    TITLE "2:cjc115_4264"
    INDEX 01 01:19:74
  TRACK 63 AUDIO
    TITLE "0:"
    INDEX 01 01:21:23
  TRACK 64 AUDIO
    TITLE "3:cjc115_4265"
    INDEX 01 01:21:29
  TRACK 65 AUDIO
    TITLE "0:"
    INDEX 01 01:23:46
  TRACK 66 AUDIO
    TITLE "4:cjc115_4266"
    INDEX 01 01:23:52
  TRACK 67 AUDIO
    TITLE "0:"
    INDEX 01 01:25:64
  TRACK 68 AUDIO
    TITLE "2:cjc115_4267"
    INDEX 01 01:26:72
  TRACK 69 AUDIO
    TITLE "0:"
    INDEX 01 01:28:14
  TRACK 70 AUDIO
    TITLE "3:cjc115_4268"
    INDEX 01 01:28:33
  TRACK 71 AUDIO
    TITLE "0:"
    INDEX 01 01:29:25
  TRACK 72 AUDIO
    TITLE "4:cjc115_4269"
    INDEX 01 01:29:33
  TRACK 73 AUDIO
    TITLE "0:"
    INDEX 01 01:32:04
